<?xml version="1.0" encoding="UTF-8" standalone="no"?>
<!DOCTYPE svg PUBLIC "-//W3C//DTD SVG 1.1//EN"
 "http://www.w3.org/Graphics/SVG/1.1/DTD/svg11.dtd">
<!-- Generated by graphviz version 2.43.0 (0)
 -->
<!-- Title: malbolge Pages: 1 -->
<svg width="352pt" height="183pt"
 viewBox="0.00 0.00 352.00 183.00" xmlns="http://www.w3.org/2000/svg" xmlns:xlink="http://www.w3.org/1999/xlink">
<g id="graph0" class="graph" transform="scale(1 1) rotate(0) translate(4 179)">
<title>malbolge</title>
<polygon fill="white" stroke="transparent" points="-4,4 -4,-179 348,-179 348,4 -4,4"/>
<g id="clust1" class="cluster">
<title>clusterdir_d44c64559bbebec7f509842c48db8b23</title>
<g id="a_clust1"><a xlink:href="dir_d44c64559bbebec7f509842c48db8b23.html" target="_top" xlink:title="include">
<polygon fill="#ddddee" stroke="black" points="8,-8 8,-167 336,-167 336,-8 8,-8"/>
<text text-anchor="middle" x="172" y="-155" font-family="Helvetica,sans-Serif" font-size="10.00">include</text>
</a>
</g>
</g>
<g id="clust2" class="cluster">
<title>clusterdir_b66b6f93beb2135b57380c6dc2b3168d</title>
<g id="a_clust2"><a xlink:href="dir_b66b6f93beb2135b57380c6dc2b3168d.html" target="_top">
<polygon fill="#eeeeff" stroke="black" points="16,-16 16,-140 328,-140 328,-16 16,-16"/>
</a>
</g>
</g>
<!-- dir_b66b6f93beb2135b57380c6dc2b3168d -->
<g id="node1" class="node">
<title>dir_b66b6f93beb2135b57380c6dc2b3168d</title>
<text text-anchor="middle" x="289" y="-111.5" font-family="Helvetica,sans-Serif" font-size="10.00">malbolge</text>
</g>
<!-- dir_53e5346ac8a63d89bec7ca6591977f5c -->
<g id="node2" class="node">
<title>dir_53e5346ac8a63d89bec7ca6591977f5c</title>
<g id="a_node2"><a xlink:href="dir_53e5346ac8a63d89bec7ca6591977f5c.html" target="_top" xlink:title="algorithm">
<polygon fill="white" stroke="black" points="240,-132 176,-132 176,-96 240,-96 240,-132"/>
<text text-anchor="middle" x="208" y="-111.5" font-family="Helvetica,sans-Serif" font-size="10.00">algorithm</text>
</a>
</g>
</g>
<!-- dir_22c496c8eaca46c4ac1eb776c2103ac2 -->
<g id="node3" class="node">
<title>dir_22c496c8eaca46c4ac1eb776c2103ac2</title>
<g id="a_node3"><a xlink:href="dir_22c496c8eaca46c4ac1eb776c2103ac2.html" target="_top" xlink:title="debugger">
<polygon fill="white" stroke="black" points="158,-132 96,-132 96,-96 158,-96 158,-132"/>
<text text-anchor="middle" x="127" y="-111.5" font-family="Helvetica,sans-Serif" font-size="10.00">debugger</text>
</a>
</g>
</g>
<!-- dir_13354923d3c443720aeeacac9f8bf743 -->
<g id="node5" class="node">
<title>dir_13354923d3c443720aeeacac9f8bf743</title>
<g id="a_node5"><a xlink:href="dir_13354923d3c443720aeeacac9f8bf743.html" target="_top" xlink:title="utility">
<polygon fill="white" stroke="black" points="154,-60 100,-60 100,-24 154,-24 154,-60"/>
<text text-anchor="middle" x="127" y="-39.5" font-family="Helvetica,sans-Serif" font-size="10.00">utility</text>
</a>
</g>
</g>
<!-- dir_22c496c8eaca46c4ac1eb776c2103ac2&#45;&gt;dir_13354923d3c443720aeeacac9f8bf743 -->
<g id="edge1" class="edge">
<title>dir_22c496c8eaca46c4ac1eb776c2103ac2&#45;&gt;dir_13354923d3c443720aeeacac9f8bf743</title>
<path fill="none" stroke="black" d="M127,-95.7C127,-87.98 127,-78.71 127,-70.11"/>
<polygon fill="black" stroke="black" points="130.5,-70.1 127,-60.1 123.5,-70.1 130.5,-70.1"/>
<g id="a_edge1&#45;headlabel"><a xlink:href="dir_000006_000003.html" target="_top" xlink:title="1">
<text text-anchor="middle" x="133.34" y="-71.2" font-family="Helvetica,sans-Serif" font-size="10.00">1</text>
</a>
</g>
</g>
<!-- dir_df5096749b53a1a279c5bfcf4e6d456d -->
<g id="node4" class="node">
<title>dir_df5096749b53a1a279c5bfcf4e6d456d</title>
<g id="a_node4"><a xlink:href="dir_df5096749b53a1a279c5bfcf4e6d456d.html" target="_top" xlink:title="math">
<polygon fill="white" stroke="black" points="78,-132 24,-132 24,-96 78,-96 78,-132"/>
<text text-anchor="middle" x="51" y="-111.5" font-family="Helvetica,sans-Serif" font-size="10.00">math</text>
</a>
</g>
</g>
</g>
</svg>
