<?xml version="1.0" encoding="UTF-8" standalone="no"?>
<!DOCTYPE svg PUBLIC "-//W3C//DTD SVG 1.1//EN"
 "http://www.w3.org/Graphics/SVG/1.1/DTD/svg11.dtd">
<!-- Generated by graphviz version 2.43.0 (0)
 -->
<!-- Title: debugger Pages: 1 -->
<svg width="102pt" height="151pt"
 viewBox="0.00 0.00 102.00 151.00" xmlns="http://www.w3.org/2000/svg" xmlns:xlink="http://www.w3.org/1999/xlink">
<g id="graph0" class="graph" transform="scale(1 1) rotate(0) translate(4 147)">
<title>debugger</title>
<polygon fill="white" stroke="transparent" points="-4,4 -4,-147 98,-147 98,4 -4,4"/>
<g id="clust1" class="cluster">
<title>clusterdir_b66b6f93beb2135b57380c6dc2b3168d</title>
<g id="a_clust1"><a xlink:href="dir_b66b6f93beb2135b57380c6dc2b3168d.html" target="_top" xlink:title="malbolge">
<polygon fill="#ddddee" stroke="black" points="8,-64 8,-135 86,-135 86,-64 8,-64"/>
<text text-anchor="middle" x="47" y="-123" font-family="Helvetica,sans-Serif" font-size="10.00">malbolge</text>
</a>
</g>
</g>
<!-- dir_22c496c8eaca46c4ac1eb776c2103ac2 -->
<g id="node1" class="node">
<title>dir_22c496c8eaca46c4ac1eb776c2103ac2</title>
<g id="a_node1"><a xlink:href="dir_22c496c8eaca46c4ac1eb776c2103ac2.html" target="_top" xlink:title="debugger">
<polygon fill="#eeeeff" stroke="black" points="78,-108 16,-108 16,-72 78,-72 78,-108"/>
<text text-anchor="middle" x="47" y="-87.5" font-family="Helvetica,sans-Serif" font-size="10.00">debugger</text>
</a>
</g>
</g>
<!-- dir_13354923d3c443720aeeacac9f8bf743 -->
<g id="node2" class="node">
<title>dir_13354923d3c443720aeeacac9f8bf743</title>
<g id="a_node2"><a xlink:href="dir_13354923d3c443720aeeacac9f8bf743.html" target="_top" xlink:title="utility">
<polygon fill="none" stroke="black" points="74,-36 20,-36 20,0 74,0 74,-36"/>
<text text-anchor="middle" x="47" y="-15.5" font-family="Helvetica,sans-Serif" font-size="10.00">utility</text>
</a>
</g>
</g>
<!-- dir_22c496c8eaca46c4ac1eb776c2103ac2&#45;&gt;dir_13354923d3c443720aeeacac9f8bf743 -->
<g id="edge1" class="edge">
<title>dir_22c496c8eaca46c4ac1eb776c2103ac2&#45;&gt;dir_13354923d3c443720aeeacac9f8bf743</title>
<path fill="none" stroke="black" d="M47,-71.7C47,-63.98 47,-54.71 47,-46.11"/>
<polygon fill="black" stroke="black" points="50.5,-46.1 47,-36.1 43.5,-46.1 50.5,-46.1"/>
<g id="a_edge1&#45;headlabel"><a xlink:href="dir_000004_000002.html" target="_top" xlink:title="1">
<text text-anchor="middle" x="53.34" y="-47.2" font-family="Helvetica,sans-Serif" font-size="10.00">1</text>
</a>
</g>
</g>
</g>
</svg>
