<?xml version="1.0" encoding="UTF-8" standalone="no"?>
<!DOCTYPE svg PUBLIC "-//W3C//DTD SVG 1.1//EN"
 "http://www.w3.org/Graphics/SVG/1.1/DTD/svg11.dtd">
<!-- Generated by graphviz version 2.43.0 (0)
 -->
<!-- Title: Graphical Class Hierarchy Pages: 1 -->
<svg width="428pt" height="116pt"
 viewBox="0.00 0.00 428.00 115.50" xmlns="http://www.w3.org/2000/svg" xmlns:xlink="http://www.w3.org/1999/xlink">
<g id="graph0" class="graph" transform="scale(1 1) rotate(0) translate(4 111.5)">
<title>Graphical Class Hierarchy</title>
<polygon fill="white" stroke="transparent" points="-4,4 -4,-111.5 424,-111.5 424,4 -4,4"/>
<!-- Node21 -->
<g id="node1" class="node">
<title>Node21</title>
<g id="a_node1"><a xlink:title="STL class.">
<polygon fill="white" stroke="#bfbfbf" points="0,-38.5 0,-57.5 86,-57.5 86,-38.5 0,-38.5"/>
<text text-anchor="middle" x="43" y="-45.5" font-family="Helvetica,sans-Serif" font-size="10.00">std::exception</text>
</a>
</g>
</g>
<!-- Node22 -->
<g id="node2" class="node">
<title>Node22</title>
<g id="a_node2"><a xlink:title="STL class.">
<polygon fill="white" stroke="#bfbfbf" points="122,-38.5 122,-57.5 226,-57.5 226,-38.5 122,-38.5"/>
<text text-anchor="middle" x="174" y="-45.5" font-family="Helvetica,sans-Serif" font-size="10.00">std::runtime_error</text>
</a>
</g>
</g>
<!-- Node21&#45;&gt;Node22 -->
<g id="edge1" class="edge">
<title>Node21&#45;&gt;Node22</title>
<path fill="none" stroke="midnightblue" d="M96.27,-48C104.65,-48 113.31,-48 121.66,-48"/>
<polygon fill="midnightblue" stroke="midnightblue" points="96.24,-44.5 86.24,-48 96.24,-51.5 96.24,-44.5"/>
</g>
<!-- Node0 -->
<g id="node3" class="node">
<title>Node0</title>
<g id="a_node3"><a xlink:href="classmalbolge_1_1execution__exception.html" target="_top" xlink:title=" ">
<polygon fill="white" stroke="black" points="283,-77 283,-107 399,-107 399,-77 283,-77"/>
<text text-anchor="start" x="291" y="-95" font-family="Helvetica,sans-Serif" font-size="10.00">malbolge::execution</text>
<text text-anchor="middle" x="341" y="-84" font-family="Helvetica,sans-Serif" font-size="10.00">_exception</text>
</a>
</g>
</g>
<!-- Node22&#45;&gt;Node0 -->
<g id="edge2" class="edge">
<title>Node22&#45;&gt;Node0</title>
<path fill="none" stroke="midnightblue" d="M220.63,-60.17C240.09,-65.36 262.99,-71.46 283.5,-76.93"/>
<polygon fill="midnightblue" stroke="midnightblue" points="221.37,-56.74 210.8,-57.55 219.56,-63.51 221.37,-56.74"/>
</g>
<!-- Node24 -->
<g id="node4" class="node">
<title>Node24</title>
<g id="a_node4"><a xlink:href="classmalbolge_1_1parse__exception.html" target="_top" xlink:title=" ">
<polygon fill="white" stroke="black" points="266.5,-38.5 266.5,-57.5 415.5,-57.5 415.5,-38.5 266.5,-38.5"/>
<text text-anchor="middle" x="341" y="-45.5" font-family="Helvetica,sans-Serif" font-size="10.00">malbolge::parse_exception</text>
</a>
</g>
</g>
<!-- Node22&#45;&gt;Node24 -->
<g id="edge3" class="edge">
<title>Node22&#45;&gt;Node24</title>
<path fill="none" stroke="midnightblue" d="M236.31,-48C246.09,-48 256.29,-48 266.32,-48"/>
<polygon fill="midnightblue" stroke="midnightblue" points="236.3,-44.5 226.3,-48 236.3,-51.5 236.3,-44.5"/>
</g>
<!-- Node25 -->
<g id="node5" class="node">
<title>Node25</title>
<g id="a_node5"><a xlink:href="classmalbolge_1_1system__exception.html" target="_top" xlink:title=" ">
<polygon fill="white" stroke="black" points="262,-0.5 262,-19.5 420,-19.5 420,-0.5 262,-0.5"/>
<text text-anchor="middle" x="341" y="-7.5" font-family="Helvetica,sans-Serif" font-size="10.00">malbolge::system_exception</text>
</a>
</g>
</g>
<!-- Node22&#45;&gt;Node25 -->
<g id="edge4" class="edge">
<title>Node22&#45;&gt;Node25</title>
<path fill="none" stroke="midnightblue" d="M226.65,-36.1C249.85,-30.76 276.84,-24.55 298.66,-19.52"/>
<polygon fill="midnightblue" stroke="midnightblue" points="225.6,-32.76 216.64,-38.41 227.17,-39.58 225.6,-32.76"/>
</g>
</g>
</svg>
