<?xml version="1.0" encoding="UTF-8" standalone="no"?>
<svg
   xmlns:dc="http://purl.org/dc/elements/1.1/"
   xmlns:cc="http://creativecommons.org/ns#"
   xmlns:rdf="http://www.w3.org/1999/02/22-rdf-syntax-ns#"
   xmlns:svg="http://www.w3.org/2000/svg"
   xmlns="http://www.w3.org/2000/svg"
   id="svg8"
   version="1.1"
   viewBox="0 0 100 100"
   height="100mm"
   width="100mm">
  <defs
     id="defs2" />
  <metadata
     id="metadata5">
    <rdf:RDF>
      <cc:Work
         rdf:about="">
        <dc:format>image/svg+xml</dc:format>
        <dc:type
           rdf:resource="http://purl.org/dc/dcmitype/StillImage" />
        <dc:title></dc:title>
      </cc:Work>
    </rdf:RDF>
  </metadata>
  <g
     transform="translate(0,-197)"
     id="layer1">
    <path
       d="m 69.298615,287.58678 a 42.380642,40.586781 0 0 1 -36.702713,-20.29339 42.380642,40.586781 0 0 1 0,-40.58678 42.380642,40.586781 0 0 1 36.702713,-20.29339"
       id="path3713"
       style="fill:none;fill-opacity:1;stroke:#000000;stroke-width:1.50000012;stroke-linecap:butt;stroke-miterlimit:4;stroke-dasharray:none;stroke-opacity:1" />
    <path
       d="m 69.296441,282.89308 a 37.396851,35.893082 0 0 1 -32.386623,-17.94654 37.396851,35.893082 0 0 1 0,-35.89308 37.396851,35.893082 0 0 1 32.386623,-17.94654"
       id="path3713-5"
       style="fill:none;fill-opacity:1;stroke:#000000;stroke-width:1.5;stroke-linecap:butt;stroke-miterlimit:4;stroke-dasharray:none;stroke-opacity:1" />
    <path
       d="m 69.292092,277.55909 a 31.73398,30.559086 0 0 1 -27.482433,-15.27955 31.73398,30.559086 0 0 1 -1e-6,-30.55908 31.73398,30.559086 0 0 1 27.482434,-15.27955"
       id="path3713-4"
       style="fill:none;fill-opacity:1;stroke:#000000;stroke-width:1.5;stroke-linecap:butt;stroke-miterlimit:4;stroke-dasharray:none;stroke-opacity:1" />
    <path
       d="m 69.296685,272.45362 a 26.310936,25.453623 0 0 1 -22.78594,-12.72681 26.310936,25.453623 0 0 1 0,-25.45362 26.310936,25.453623 0 0 1 22.78594,-12.72681"
       id="path3713-4-9"
       style="fill:none;fill-opacity:1;stroke:#000000;stroke-width:1.5;stroke-linecap:butt;stroke-miterlimit:4;stroke-dasharray:none;stroke-opacity:1" />
    <path
       d="m 69.300889,267.42193 a 20.966522,20.421928 0 0 1 -18.157542,-10.21097 20.966522,20.421928 0 0 1 0,-20.42192 20.966522,20.421928 0 0 1 18.157541,-10.21097"
       id="path3713-4-9-0"
       style="fill:none;fill-opacity:1;stroke:#000000;stroke-width:1.50000012;stroke-linecap:butt;stroke-miterlimit:4;stroke-dasharray:none;stroke-opacity:1" />
    <path
       d="m 69.313752,262.27251 a 15.495198,15.272506 0 0 1 -13.419236,-7.63626 15.495198,15.272506 0 0 1 0,-15.2725 15.495198,15.272506 0 0 1 13.419236,-7.63626"
       id="path3713-4-9-0-9"
       style="fill:none;fill-opacity:1;stroke:#000000;stroke-width:1.5;stroke-linecap:butt;stroke-miterlimit:4;stroke-dasharray:none;stroke-opacity:1" />
    <path
       d="m 69.364357,257.26368 a 10.164762,10.26368 0 0 1 -8.802942,-5.13184 10.164762,10.26368 0 0 1 0,-10.26368 10.164762,10.26368 0 0 1 8.802942,-5.13184"
       id="path3713-4-9-0-9-1"
       style="fill:none;fill-opacity:1;stroke:#000000;stroke-width:1.5;stroke-linecap:butt;stroke-miterlimit:4;stroke-dasharray:none;stroke-opacity:1" />
    <path
       d="m 69.730431,252.35505 a 5.2618418,5.3550458 0 0 1 -4.556889,-2.67753 5.2618418,5.3550458 0 0 1 0,-5.35504 5.2618418,5.3550458 0 0 1 4.556889,-2.67753"
       id="path3713-4-9-0-9-1-7"
       style="fill:none;fill-opacity:1;stroke:#c00000;stroke-width:3.99999976;stroke-linecap:butt;stroke-miterlimit:4;stroke-dasharray:none;stroke-opacity:1" />
    <path
       id="path4640"
       d="M 69.519448,295.32935 V 198.67064"
       style="fill:none;stroke:#000000;stroke-width:1.5;stroke-linecap:butt;stroke-linejoin:miter;stroke-miterlimit:4;stroke-dasharray:none;stroke-opacity:1" />
  </g>
</svg>
